<?xml version="1.0"?>
<svg xmlns="http://www.w3.org/2000/svg" viewBox="0 0 50 50">
    <path d="M 11 2 C 10.448 2 10 2.448 10 3 L 10 38 L 35 38 C 35.552 38 36 38.448 36 39 L 36 40.777344 C 36 43.387344 37.903 45.722563 40.5 45.976562 C 43.48 46.266562 46 43.922 46 41 L 46 3 C 46 2.448 45.552 2 45 2 L 11 2 z M 36.21875 10 C 36.479469 9.9961094 37 10.100438 37 10.992188 L 37 15.369141 L 37 21.296875 L 37 27.998047 C 37 29.125047 35.629 30.998047 32.5 30.998047 C 29.371 30.998047 29 28.999047 29 27.998047 C 29 26.511047 30.622 24.996094 33 24.996094 C 35.216 24.996094 35 24.426094 35 23.496094 L 35 21.900391 L 35 16.103516 C 35 15.444516 34.959516 15.207047 34.228516 15.373047 C 32.970516 15.658047 25.749875 17.440531 25.421875 17.519531 C 25.093875 17.597531 25 17.791141 25 18.369141 L 25 30.998047 C 25 32.125047 23.629 34 20.5 34 C 17.371 34 17 31.999047 17 30.998047 C 17 29.511047 18.622 27.998047 21 27.998047 C 23.216 27.998047 23 27.428047 23 26.498047 L 23 13.492188 C 23 13.012187 23.195594 12.687078 23.683594 12.580078 C 24.498594 12.401078 36.072266 10.015625 36.072266 10.015625 C 36.072266 10.015625 36.131844 10.001297 36.21875 10 z M 5 40 C 4.448 40 4 40.447 4 41 L 4 42 C 4 45.309 6.691 48 10 48 L 40 48 C 40.169 48 40.335 47.987609 40.5 47.974609 C 36.874 47.715609 34 44.691 34 41 L 34 40 L 10 40 L 5 40 z"/>
</svg>
